<?xml version="1.0" standalone="no"?><!DOCTYPE svg PUBLIC "-//W3C//DTD SVG 1.1//EN" "http://www.w3.org/Graphics/SVG/1.1/DTD/svg11.dtd"><svg height="2581" node-id="1" sillyvg="true" template-height="2581" template-width="3132" version="1.1" viewBox="0 0 3132 2581" width="3132" xmlns="http://www.w3.org/2000/svg" xmlns:xlink="http://www.w3.org/1999/xlink"><defs node-id="97"><linearGradient gradientUnits="userSpaceOnUse" id="paint0_linear_7_594" node-id="27" spreadMethod="pad" x1="2372.24" x2="2372.24" y1="538.782" y2="263.018"><stop offset="0" stop-color="#ffffff" stop-opacity="0.1"></stop><stop offset="0.14" stop-color="#f8fbff" stop-opacity="0.27"></stop><stop offset="0.37" stop-color="#edf5ff" stop-opacity="0.52"></stop><stop offset="0.58" stop-color="#e4f0ff" stop-opacity="0.73"></stop><stop offset="0.76" stop-color="#deecff" stop-opacity="0.88"></stop><stop offset="0.91" stop-color="#daeaff" stop-opacity="0.97"></stop><stop offset="1" stop-color="#d9e9ff"></stop></linearGradient><linearGradient gradientUnits="userSpaceOnUse" id="paint1_linear_7_594" node-id="35" spreadMethod="pad" x1="290.49" x2="721.267" y1="857.663" y2="294.219"><stop offset="0" stop-color="#ffffff" stop-opacity="0.1"></stop><stop offset="0.09" stop-color="#fefeff" stop-opacity="0.13"></stop><stop offset="0.23" stop-color="#fbfcff" stop-opacity="0.21"></stop><stop offset="0.4" stop-color="#f5f9ff" stop-opacity="0.33"></stop><stop offset="0.59" stop-color="#eef5ff" stop-opacity="0.51"></stop><stop offset="0.79" stop-color="#e4efff" stop-opacity="0.74"></stop><stop offset="1" stop-color="#d9e9ff"></stop></linearGradient><linearGradient gradientUnits="userSpaceOnUse" id="paint2_linear_7_594" node-id="43" spreadMethod="pad" x1="2331.5" x2="2804" y1="706" y2="88"><stop offset="0" stop-color="#ffffff" stop-opacity="0.1"></stop><stop offset="0.09" stop-color="#fefeff" stop-opacity="0.13"></stop><stop offset="0.23" stop-color="#fbfcff" stop-opacity="0.21"></stop><stop offset="0.4" stop-color="#f5f9ff" stop-opacity="0.33"></stop><stop offset="0.59" stop-color="#eef5ff" stop-opacity="0.51"></stop><stop offset="0.79" stop-color="#e4efff" stop-opacity="0.74"></stop><stop offset="1" stop-color="#d9e9ff"></stop></linearGradient><linearGradient gradientUnits="userSpaceOnUse" id="paint3_linear_7_594" node-id="51" spreadMethod="pad" x1="1692.27" x2="1737.27" y1="2610.5" y2="1352.5"><stop offset="0.2597" stop-color="#ffffff"></stop><stop offset="1" stop-color="#6397f7"></stop></linearGradient><linearGradient gradientUnits="userSpaceOnUse" id="paint4_linear_7_594" node-id="54" spreadMethod="pad" x1="2791.93" x2="2635.5" y1="1870.05" y2="1872.51"><stop offset="0" stop-color="#f3f8ff"></stop><stop offset="1" stop-color="#e4efff"></stop></linearGradient><linearGradient gradientUnits="userSpaceOnUse" id="paint5_linear_7_594" node-id="57" spreadMethod="pad" x1="3079.86" x2="2923.43" y1="2014.02" y2="2016.48"><stop offset="0" stop-color="#f3f8ff"></stop><stop offset="1" stop-color="#e4efff"></stop></linearGradient><linearGradient gradientUnits="userSpaceOnUse" id="paint6_linear_7_594" node-id="60" spreadMethod="pad" x1="529.695" x2="309.949" y1="2054.96" y2="2058.38"><stop offset="0" stop-color="#f3f8ff"></stop><stop offset="1" stop-color="#e4efff"></stop></linearGradient><linearGradient gradientUnits="userSpaceOnUse" id="paint7_linear_7_594" node-id="63" spreadMethod="pad" x1="1485.37" x2="1929.8" y1="1913.1" y2="2151.26"><stop offset="0" stop-color="#5a91f7" stop-opacity="0.21"></stop><stop offset="0.9749" stop-color="#ffffff" stop-opacity="0.3"></stop></linearGradient><linearGradient gradientUnits="userSpaceOnUse" id="paint8_linear_7_594" node-id="66" spreadMethod="pad" x1="1103.5" x2="1198.68" y1="1316" y2="896.723"><stop offset="0" stop-color="#5792f0"></stop><stop offset="1" stop-color="#d9e9ff"></stop></linearGradient><linearGradient gradientUnits="userSpaceOnUse" id="paint9_linear_7_594" node-id="69" spreadMethod="pad" x1="2166.5" x2="1858.91" y1="1332.5" y2="959.061"><stop offset="0" stop-color="#5792f0"></stop><stop offset="1" stop-color="#d9e9ff"></stop></linearGradient><linearGradient gradientUnits="userSpaceOnUse" id="paint10_linear_7_594" node-id="72" spreadMethod="pad" x1="1819.95" x2="1374.3" y1="1292.59" y2="431.384"><stop offset="0" stop-color="#5792f0"></stop><stop offset="1" stop-color="#e4efff"></stop></linearGradient><linearGradient gradientUnits="userSpaceOnUse" id="paint11_linear_7_594" node-id="75" spreadMethod="pad" x1="1626" x2="1626" y1="511" y2="65"><stop offset="0" stop-color="#5792f0"></stop><stop offset="1" stop-color="#eef6ff"></stop></linearGradient><linearGradient gradientUnits="userSpaceOnUse" id="paint12_linear_7_594" node-id="78" spreadMethod="pad" x1="1388.71" x2="1844.84" y1="1832.08" y2="1338.09"><stop offset="0" stop-color="#5792f0"></stop><stop offset="1" stop-color="#eef6ff"></stop></linearGradient><linearGradient gradientUnits="userSpaceOnUse" id="paint13_linear_7_594" node-id="81" spreadMethod="pad" x1="1712" x2="1518" y1="836" y2="513.5"><stop offset="0" stop-color="#5792f0"></stop><stop offset="1" stop-color="#e4f1ff"></stop></linearGradient><linearGradient gradientUnits="userSpaceOnUse" id="paint14_linear_7_594" node-id="84" spreadMethod="pad" x1="1646.62" x2="1646.62" y1="1694.2" y2="1011.21"><stop offset="0" stop-color="#5792f0"></stop><stop offset="1" stop-color="#e4efff"></stop></linearGradient><linearGradient gradientUnits="userSpaceOnUse" id="paint15_linear_7_594" node-id="87" spreadMethod="pad" x1="996" x2="713.172" y1="1698" y2="1433.22"><stop offset="0" stop-color="#5792f0"></stop><stop offset="1" stop-color="#f3f8ff"></stop></linearGradient><linearGradient gradientUnits="userSpaceOnUse" id="paint16_linear_7_594" node-id="90" spreadMethod="pad" x1="1533.99" x2="998.522" y1="2288.31" y2="2288.31"><stop offset="0" stop-color="#eaf0fc"></stop><stop offset="1" stop-color="#cfdffa"></stop></linearGradient><linearGradient gradientUnits="userSpaceOnUse" id="paint17_linear_7_594" node-id="93" spreadMethod="pad" x1="1368.55" x2="753.326" y1="2193.56" y2="2193.56"><stop offset="0" stop-color="#eaf0fc"></stop><stop offset="1" stop-color="#cfdffa"></stop></linearGradient></defs><path d="M 2560.74 367.73 C 2540.69 336.24 2506.74 316.72 2469.81 315.38 C 2448.31 282.10 2411.45 262.35 2372.21 263.02 C 2340.80 262.72 2310.54 275.24 2288.29 297.82 C 2278.12 294.54 2267.50 292.83 2256.84 292.83 C 2207.42 292.83 2166.62 327.49 2162.41 371.35 C 2124.73 380.44 2097.60 413.79 2096.00 453.03 C 2096.00 500.29 2138.71 538.78 2190.43 538.78 L 2553.10 538.78 C 2605.57 538.78 2647.53 500.29 2647.53 453.03 C 2648.35 408.13 2609.56 371.24 2560.74 367.73 Z" fill="url(#paint0_linear_7_594)" fill-rule="nonzero" node-id="238" stroke="none" target-height="276.43002" target-width="552.3501" target-x="2096" target-y="262.35"></path><path d="M 836.18 436.00 L 774.96 436.00 C 774.96 313.36 675.55 214.00 553.02 214.00 C 430.41 214.00 331.09 313.36 331.09 436.00 L 286.36 436.00 C 229.92 436.00 184.27 485.68 184.27 547.00 C 184.27 608.32 230.00 658.00 286.36 658.00 L 836.18 658.00 C 892.55 658.00 938.27 608.32 938.27 547.00 C 938.27 485.68 892.55 436.00 836.18 436.00 Z" fill="url(#paint1_linear_7_594)" fill-rule="nonzero" node-id="240" stroke="none" target-height="444" target-width="754" target-x="184.27" target-y="214"></path><path d="M 2930.02 243.50 L 2862.89 243.50 C 2862.89 108.93 2753.86 0.00 2619.47 0.00 C 2485.07 0.00 2376.04 108.93 2376.04 243.50 L 2326.97 243.50 C 2265.09 243.50 2215.00 297.97 2215.00 365.25 C 2215.00 432.40 2265.09 487.00 2326.97 487.00 L 2930.02 487.00 C 2991.91 487.00 3042.00 432.40 3042.00 365.25 C 3042.00 297.97 2991.91 243.50 2930.02 243.50 Z" fill="url(#paint2_linear_7_594)" fill-rule="nonzero" node-id="242" stroke="none" target-height="487" target-width="827" target-x="2215" target-y="0"></path><path d="M 1522.45 1753.04 C 1964.28 1753.04 2362.13 1789.10 2640.28 1846.61 C 2912.30 1848.49 3131.28 1929.90 3131.28 2030.17 C 3131.28 2109.64 2993.71 2177.31 2801.23 2202.86 C 2755.31 2216.39 2703.55 2229.21 2646.76 2241.16 C 2648.27 2248.71 2648.99 2256.42 2648.99 2264.12 C 2648.99 2439.04 2268.70 2580.84 1799.58 2580.84 C 1377.55 2580.84 1027.35 2466.03 961.34 2315.66 C 398.21 2272.90 0.00 2167.66 0.00 2044.57 C 0.00 1883.54 681.61 1753.04 1522.45 1753.04 Z" fill="url(#paint3_linear_7_594)" fill-opacity="0.68" fill-rule="evenodd" node-id="244" stroke="none" target-height="827.80005" target-width="3131.28" target-x="0" target-y="1753.04"></path><path d="M 2809.58 1649.16 L 2811.81 1656.72 L 2813.69 1663.85 L 2814.55 1669.61 L 2812.82 1681.41 L 2807.78 1691.63 L 2800.01 1699.91 L 2790.22 1705.60 L 2781.72 1706.03 L 2773.59 1706.46 L 2765.02 1706.46 L 2694.91 1707.40 L 2694.91 1781.61 L 2695.56 1814.73 L 2697.14 1844.74 L 2699.38 1875.41 L 2634.59 1875.41 L 2635.96 1858.06 L 2636.82 1830.27 L 2637.33 1783.41 L 2637.33 1715.39 L 2629.12 1720.43 L 2620.19 1722.08 L 2612.92 1721.15 L 2606.95 1718.48 L 2601.84 1714.31 L 2597.73 1708.69 L 2546.84 1706.03 L 2533.24 1700.56 L 2522.15 1691.13 L 2516.61 1683.14 L 2513.37 1674.29 L 2512.22 1664.28 L 2512.65 1659.39 L 2514.02 1654.92 L 2525.25 1629.15 L 2527.12 1619.65 L 2530.86 1610.94 L 2536.26 1603.02 L 2542.81 1596.26 L 2613.43 1466.90 L 2613.86 1466.90 L 2623.36 1452.29 L 2634.16 1440.20 L 2642.51 1434.15 L 2652.44 1430.41 L 2664.25 1429.11 L 2679.72 1431.27 L 2693.33 1437.53 L 2704.49 1447.32 L 2712.40 1459.78 L 2769.13 1569.55 L 2778.70 1574.01 L 2787.05 1580.20 L 2794.32 1588.27 L 2799.79 1597.55 L 2803.10 1607.70 L 2804.18 1618.93 L 2801.95 1634.05 L 2809.58 1649.16 Z" fill="url(#paint4_linear_7_594)" fill-rule="nonzero" node-id="246" stroke="none" target-height="446.30005" target-width="302.33008" target-x="2512.22" target-y="1429.11"></path><path d="M 3097.52 1793.13 L 3099.75 1800.69 L 3101.62 1807.82 L 3102.48 1813.57 L 3100.75 1825.38 L 3095.72 1835.60 L 3087.94 1843.88 L 3078.15 1849.57 L 3069.66 1850.00 L 3061.52 1850.43 L 3052.96 1850.43 L 2982.85 1851.37 L 2982.85 1925.58 L 2983.49 1958.69 L 2985.08 1988.71 L 2987.31 2019.37 L 2922.52 2019.37 L 2923.89 2002.03 L 2924.76 1974.24 L 2925.26 1927.38 L 2925.26 1859.36 L 2917.05 1864.39 L 2908.13 1866.05 L 2900.86 1865.11 L 2894.88 1862.45 L 2889.77 1858.28 L 2885.67 1852.66 L 2834.78 1850.00 L 2821.17 1844.53 L 2810.09 1835.10 L 2804.54 1827.11 L 2801.30 1818.25 L 2800.15 1808.25 L 2800.58 1803.35 L 2801.95 1798.89 L 2813.18 1773.12 L 2815.05 1763.62 L 2818.80 1754.91 L 2824.19 1746.99 L 2830.75 1740.22 L 2901.36 1610.87 L 2901.79 1610.87 L 2911.29 1596.26 L 2922.09 1584.16 L 2930.44 1578.12 L 2940.38 1574.37 L 2952.18 1573.08 L 2967.66 1575.24 L 2981.26 1581.50 L 2992.42 1591.29 L 3000.34 1603.74 L 3057.06 1713.52 L 3066.63 1717.98 L 3074.98 1724.17 L 3082.26 1732.23 L 3087.73 1741.52 L 3091.04 1751.67 L 3092.12 1762.90 L 3089.89 1778.01 L 3097.52 1793.13 Z" fill="url(#paint5_linear_7_594)" fill-rule="nonzero" node-id="248" stroke="none" target-height="446.29004" target-width="302.33008" target-x="2800.15" target-y="1573.08"></path><path d="M 554.49 1741.45 L 557.65 1752.17 L 560.17 1762.25 L 561.47 1770.46 L 560.39 1781.90 L 557.22 1792.27 L 551.97 1801.70 L 541.10 1813.43 L 527.35 1821.56 L 515.33 1822.21 L 503.96 1822.79 L 491.93 1822.79 L 393.39 1824.08 L 393.39 1929.47 L 394.32 1976.47 L 396.48 2019.01 L 399.65 2062.56 L 308.67 2062.56 L 310.54 2037.95 L 311.83 1998.50 L 312.48 1931.99 L 312.48 1835.46 L 304.85 1840.78 L 296.93 1843.88 L 288.44 1844.89 L 278.29 1843.59 L 269.79 1839.85 L 262.67 1833.95 L 256.84 1825.96 L 185.43 1822.21 L 172.26 1817.53 L 160.74 1810.55 L 150.66 1801.05 L 142.96 1789.68 L 138.35 1777.08 L 136.77 1762.90 L 137.42 1755.92 L 139.29 1749.65 L 155.12 1713.01 L 157.72 1699.62 L 162.97 1687.17 L 170.53 1675.94 L 179.74 1666.37 L 278.94 1482.74 L 279.58 1482.74 L 292.90 1462.01 L 308.02 1444.88 L 319.82 1436.24 L 333.71 1430.98 L 350.42 1429.11 L 365.17 1430.48 L 378.70 1434.44 L 391.16 1441.13 L 402.17 1449.99 L 411.10 1460.42 L 418.01 1472.66 L 497.62 1628.51 L 511.08 1634.77 L 522.82 1643.55 L 533.04 1655.00 L 540.74 1668.17 L 545.35 1682.56 L 546.93 1698.54 L 546.21 1708.69 L 543.76 1720.00 L 554.49 1741.45 Z" fill="url(#paint6_linear_7_594)" fill-rule="nonzero" node-id="250" stroke="none" target-height="633.4501" target-width="424.69995" target-x="136.77" target-y="1429.11"></path><path d="M 1911.07 1968.27 C 1911.07 2008.18 1787.01 2040.54 1634.03 2040.54 C 1481.06 2040.54 1357.00 2008.18 1357.00 1968.27 C 1357.00 1928.36 1481.06 1896.00 1634.03 1896.00 C 1787.01 1896.00 1911.07 1928.36 1911.07 1968.27 Z" fill="url(#paint7_linear_7_594)" fill-opacity="0.68" fill-rule="nonzero" node-id="252" stroke="none" target-height="144.54004" target-width="554.06995" target-x="1357" target-y="1896"></path><path d="M 1259.78 764.77 L 1218.80 790.96 L 1182.91 816.49 L 1151.68 841.42 L 1124.71 865.82 L 1101.65 889.66 L 1082.12 912.98 L 1065.89 935.86 L 1052.67 958.39 L 1042.23 980.58 L 1034.35 1002.59 L 1028.92 1024.52 L 1025.83 1046.40 L 1025.00 1068.45 L 1026.52 1090.73 L 1035.70 1159.89 L 1046.36 1227.36 L 1058.58 1293.18 L 1072.29 1357.43 L 1087.42 1420.12 L 1100.30 1434.74 L 1112.96 1445.79 L 1125.49 1453.75 L 1137.97 1459.01 L 1150.59 1461.84 L 1163.60 1462.36 L 1177.12 1460.45 L 1191.44 1455.97 L 1206.79 1448.48 L 1223.37 1437.61 L 1274.61 1397.67 L 1342.43 1340.69 L 1430.22 1262.86 L 1259.78 764.77 Z" fill="url(#paint8_linear_7_594)" fill-rule="nonzero" node-id="254" stroke="none" target-height="697.58997" target-width="405.21997" target-x="1025" target-y="764.77"></path><path d="M 2008.27 764.77 L 2049.24 790.96 L 2085.13 816.49 L 2116.37 841.42 L 2143.34 865.82 L 2166.39 889.66 L 2185.88 912.98 L 2202.11 935.86 L 2215.33 958.39 L 2225.82 980.58 L 2233.69 1002.59 L 2239.13 1024.52 L 2242.22 1046.40 L 2243.00 1068.45 L 2241.48 1090.73 L 2232.34 1159.89 L 2221.64 1227.36 L 2209.46 1293.18 L 2195.76 1357.43 L 2180.62 1420.12 L 2167.70 1434.74 L 2155.04 1445.79 L 2142.55 1453.75 L 2130.07 1459.01 L 2117.41 1461.84 L 2104.45 1462.36 L 2090.92 1460.45 L 2076.56 1455.97 L 2061.21 1448.48 L 2044.63 1437.61 L 1993.39 1397.67 L 1925.57 1340.69 L 1837.83 1262.86 L 2008.27 764.77 Z" fill="url(#paint9_linear_7_594)" fill-rule="nonzero" node-id="256" stroke="none" target-height="697.58997" target-width="405.17004" target-x="1837.83" target-y="764.77"></path><path d="M 1850.27 1331.50 L 1876.59 1289.92 L 1899.99 1249.33 L 1920.70 1209.70 L 1938.75 1170.94 L 1954.37 1133.09 L 1968.64 1093.46 L 1980.69 1054.79 L 1990.65 1016.99 L 1998.57 980.01 L 2004.48 943.77 L 2009.75 897.45 L 2012.40 852.42 L 2012.62 808.66 L 2010.44 766.03 L 2006.00 723.18 L 1999.74 681.63 L 1991.69 641.35 L 1981.86 602.24 L 1970.29 563.27 L 1957.50 525.77 L 1943.62 489.66 L 1928.61 454.86 L 1906.60 409.14 L 1883.85 366.33 L 1860.32 326.36 L 1835.26 287.21 L 1810.77 251.53 L 1786.84 219.13 L 1750.13 173.01 L 1717.85 135.65 L 1686.70 102.06 L 1663.12 78.31 L 1656.51 73.05 L 1649.29 69.09 L 1641.29 66.44 L 1632.93 65.04 L 1624.63 65.00 L 1616.23 66.26 L 1608.18 68.83 L 1600.87 72.66 L 1594.17 77.83 L 1570.25 101.24 L 1538.62 134.30 L 1505.87 171.14 L 1468.72 216.65 L 1444.44 248.66 L 1419.65 283.94 L 1394.29 322.75 L 1370.49 362.33 L 1347.43 404.83 L 1325.25 450.25 L 1310.07 484.83 L 1296.02 520.77 L 1283.14 558.13 L 1271.48 596.98 L 1261.56 636.00 L 1253.51 676.24 L 1247.25 717.78 L 1242.86 760.72 L 1240.72 803.44 L 1241.03 847.33 L 1243.81 892.57 L 1249.25 939.21 L 1255.34 975.66 L 1263.48 1012.90 L 1273.66 1051.05 L 1286.01 1090.11 L 1300.58 1130.22 L 1316.50 1168.50 L 1334.91 1207.70 L 1356.00 1247.94 L 1379.89 1289.18 L 1406.73 1331.50 L 1850.27 1331.50 Z" fill="url(#paint10_linear_7_594)" fill-rule="nonzero" node-id="258" stroke="none" target-height="1266.5" target-width="771.9" target-x="1240.72" target-y="65"></path><path d="M 1661.38 78.40 L 1655.12 73.09 L 1648.20 69.13 L 1640.63 66.48 L 1632.63 65.09 L 1624.71 65.00 L 1616.71 66.22 L 1609.05 68.74 L 1602.05 72.57 L 1595.65 77.75 L 1576.73 96.84 L 1552.59 122.68 L 1527.49 151.22 L 1498.95 185.98 L 1470.46 223.39 L 1440.22 266.46 L 1420.78 296.34 L 1401.33 328.44 L 1381.93 362.90 L 1869.63 362.90 L 1840.92 312.65 L 1812.34 267.37 L 1782.80 224.48 L 1755.09 187.15 L 1727.38 152.40 L 1703.06 123.73 L 1679.66 97.71 L 1661.38 78.40 Z" fill="url(#paint11_linear_7_594)" fill-rule="nonzero" node-id="260" stroke="none" target-height="297.9" target-width="487.69995" target-x="1381.93" target-y="65"></path><path d="M 1850.66 1331.50 L 1871.19 1300.75 L 1889.94 1270.56 L 1368.40 1270.56 L 1386.80 1300.92 L 1406.73 1331.50 L 1850.66 1331.50 Z" fill="#aecbf9" fill-rule="nonzero" node-id="262" stroke="none" target-height="60.93994" target-width="521.5399" target-x="1368.4" target-y="1270.56"></path><path d="M 1860.66 1663.42 L 1856.92 1682.09 L 1854.14 1690.13 L 1849.22 1697.09 L 1843.79 1701.58 L 1836.65 1705.53 L 1827.30 1708.88 L 1818.64 1710.15 L 1810.46 1709.58 L 1802.59 1707.27 L 1794.85 1703.23 L 1787.15 1697.18 L 1760.18 1671.04 L 1752.65 1664.12 L 1748.26 1660.81 L 1744.43 1659.64 L 1741.34 1661.25 L 1738.25 1665.60 L 1733.34 1675.04 L 1669.30 1802.89 L 1663.95 1812.29 L 1657.56 1820.20 L 1650.07 1826.08 L 1640.50 1830.25 L 1629.71 1832.08 L 1619.97 1831.38 L 1610.92 1828.43 L 1602.83 1823.34 L 1595.52 1815.85 L 1588.91 1805.46 L 1523.14 1674.43 L 1518.66 1665.86 L 1515.74 1661.68 L 1512.61 1659.77 L 1508.95 1660.64 L 1504.69 1663.77 L 1497.43 1670.52 L 1469.24 1697.92 L 1460.28 1704.62 L 1451.23 1708.62 L 1441.87 1710.19 L 1431.96 1709.41 L 1421.17 1706.06 L 1413.51 1701.53 L 1408.25 1696.18 L 1404.33 1689.83 L 1401.33 1682.57 L 1396.02 1666.30 L 1390.80 1648.33 L 1386.89 1629.84 L 1384.28 1610.79 L 1382.32 1582.16 L 1382.36 1554.54 L 1383.93 1527.61 L 1386.37 1504.12 L 1392.24 1466.01 L 1396.02 1446.79 L 1399.20 1431.78 L 1401.85 1425.21 L 1406.03 1419.51 L 1408.20 1417.55 L 1416.73 1410.51 L 1425.08 1406.11 L 1433.39 1404.07 L 1442.01 1403.98 L 1451.79 1405.98 L 1463.06 1410.46 L 1492.82 1423.38 L 1522.44 1433.61 L 1552.06 1441.17 L 1581.73 1446.22 L 1611.53 1448.79 L 1641.63 1448.83 L 1672.09 1446.35 L 1702.97 1441.31 L 1734.47 1433.61 L 1764.79 1423.25 L 1794.24 1410.25 L 1803.20 1407.07 L 1811.46 1406.03 L 1819.34 1406.94 L 1826.95 1409.38 L 1833.95 1412.94 L 1840.44 1417.68 L 1848.83 1426.08 L 1855.01 1434.91 L 1859.19 1444.09 L 1860.45 1451.09 L 1871.28 1493.42 L 1874.85 1513.87 L 1876.85 1536.27 L 1876.85 1559.98 L 1874.28 1589.60 L 1869.36 1621.66 L 1860.66 1663.42 Z" fill="url(#paint12_linear_7_594)" fill-rule="nonzero" node-id="264" stroke="none" target-height="428.09998" target-width="494.53003" target-x="1382.32" target-y="1403.98"></path><path d="M 1406.72 1331.50 L 1849.31 1331.50 L 1849.31 1392.49 L 1406.72 1392.49 L 1406.72 1331.50 Z" fill="#5792f0" fill-rule="nonzero" node-id="266" stroke="none" target-height="60.98999" target-width="442.5901" target-x="1406.72" target-y="1331.5"></path><path d="M 1829.87 674.51 L 1828.78 695.61 L 1825.69 715.75 L 1820.73 735.02 L 1813.90 753.59 L 1805.24 771.47 L 1795.15 788.18 L 1783.54 803.71 L 1770.36 818.19 L 1755.87 831.33 L 1740.34 842.95 L 1723.68 853.08 L 1705.76 861.74 L 1687.22 868.57 L 1667.91 873.53 L 1647.77 876.57 L 1626.67 877.70 L 1605.57 876.57 L 1585.43 873.53 L 1566.16 868.57 L 1547.58 861.74 L 1529.71 853.08 L 1513.00 842.95 L 1497.47 831.33 L 1482.98 818.19 L 1469.85 803.71 L 1458.23 788.18 L 1448.10 771.47 L 1439.44 753.59 L 1432.61 735.02 L 1427.65 715.75 L 1424.61 695.61 L 1423.47 674.51 L 1424.61 653.41 L 1427.65 633.27 L 1432.61 613.95 L 1439.44 595.38 L 1448.10 577.50 L 1458.23 560.84 L 1469.85 545.26 L 1482.98 530.82 L 1497.47 517.64 L 1513.00 506.03 L 1529.71 495.89 L 1547.58 487.28 L 1566.16 480.40 L 1585.43 475.49 L 1605.57 472.40 L 1626.67 471.27 L 1647.77 472.40 L 1667.91 475.49 L 1687.22 480.40 L 1705.76 487.28 L 1723.68 495.89 L 1740.34 506.03 L 1755.87 517.64 L 1770.36 530.82 L 1783.54 545.26 L 1795.15 560.84 L 1805.24 577.50 L 1813.90 595.38 L 1820.73 613.95 L 1825.69 633.27 L 1828.78 653.41 L 1829.87 674.51 Z" fill="#ffffff" fill-rule="nonzero" node-id="268" stroke="none" target-height="406.43002" target-width="406.40002" target-x="1423.47" target-y="471.27"></path><path d="M 1762.13 674.50 L 1760.87 693.07 L 1757.31 710.60 L 1751.52 727.22 L 1743.60 742.92 L 1733.94 757.24 L 1722.46 770.29 L 1709.45 781.73 L 1695.14 791.39 L 1679.39 799.30 L 1662.82 805.09 L 1645.29 808.66 L 1626.67 809.96 L 1608.05 808.66 L 1590.56 805.09 L 1573.95 799.30 L 1558.24 791.39 L 1543.93 781.73 L 1530.88 770.29 L 1519.44 757.24 L 1509.78 742.92 L 1501.86 727.22 L 1496.08 710.60 L 1492.51 693.07 L 1491.21 674.50 L 1492.51 655.88 L 1496.08 638.35 L 1501.86 621.73 L 1509.78 606.02 L 1519.44 591.71 L 1530.88 578.71 L 1543.93 567.22 L 1558.24 557.57 L 1573.95 549.65 L 1590.56 543.86 L 1608.05 540.29 L 1626.67 539.03 L 1645.29 540.29 L 1662.82 543.86 L 1679.39 549.65 L 1695.14 557.57 L 1709.45 567.22 L 1722.46 578.71 L 1733.94 591.71 L 1743.60 606.02 L 1751.52 621.73 L 1757.31 638.35 L 1760.87 655.88 L 1762.13 674.50 Z" fill="url(#paint13_linear_7_594)" fill-rule="nonzero" node-id="270" stroke="none" target-height="270.93" target-width="270.92004" target-x="1491.21" target-y="539.03"></path><path d="M 1622.71 1080.89 L 1613.49 1089.77 L 1604.48 1100.16 L 1592.00 1117.39 L 1584.12 1130.18 L 1575.95 1145.97 L 1567.42 1165.28 L 1560.37 1184.95 L 1554.15 1208.05 L 1548.93 1234.84 L 1545.71 1261.86 L 1544.54 1292.66 L 1545.67 1327.68 L 1548.06 1353.30 L 1552.28 1381.31 L 1558.50 1411.85 L 1566.85 1445.17 L 1576.42 1476.89 L 1588.61 1511.30 L 1603.61 1548.58 L 1621.71 1588.90 L 1639.98 1548.97 L 1655.16 1512.04 L 1667.52 1477.93 L 1677.26 1446.43 L 1685.79 1413.29 L 1692.10 1382.88 L 1696.45 1354.99 L 1698.97 1329.37 L 1700.23 1294.40 L 1699.19 1263.60 L 1696.05 1236.50 L 1690.92 1209.57 L 1684.79 1186.38 L 1677.78 1166.50 L 1669.34 1147.01 L 1661.17 1131.05 L 1653.34 1118.08 L 1640.85 1100.55 L 1631.89 1089.98 L 1622.71 1080.89 Z" fill="url(#paint14_linear_7_594)" fill-rule="nonzero" node-id="272" stroke="none" target-height="508.01" target-width="155.68994" target-x="1544.54" target-y="1080.89"></path><path d="M 806.70 1635.43 L 844.22 1635.43 L 844.22 2035.62 L 806.70 2035.62 L 806.70 1635.43 Z" fill="#5792f0" fill-rule="nonzero" node-id="274" stroke="none" target-height="400.18994" target-width="37.51996" target-x="806.7" target-y="1635.43"></path><path d="M 830.06 1406.26 C 830.60 1406.79 831.06 1407.40 831.44 1408.05 L 994.63 1687.79 C 994.92 1688.29 995.17 1688.83 995.35 1689.38 L 995.48 1689.80 C 995.73 1690.54 995.83 1691.32 995.78 1692.11 L 995.78 1692.11 C 995.73 1692.89 995.52 1693.66 995.18 1694.37 L 995.15 1694.44 C 994.83 1695.09 994.39 1695.68 993.86 1696.17 L 993.86 1696.17 C 993.18 1696.79 992.36 1697.24 991.47 1697.48 L 990.77 1697.66 C 990.03 1697.86 989.28 1697.96 988.52 1697.96 L 662.09 1697.96 C 661.53 1697.96 660.98 1697.90 660.43 1697.79 L 660.02 1697.70 C 659.22 1697.54 658.47 1697.22 657.80 1696.76 L 657.80 1696.76 C 657.17 1696.33 656.62 1695.79 656.19 1695.16 L 656.15 1695.09 C 655.72 1694.46 655.42 1693.76 655.27 1693.02 L 655.27 1693.02 C 655.09 1692.15 655.12 1691.26 655.35 1690.40 L 655.54 1689.69 C 655.74 1688.93 656.04 1688.20 656.44 1687.52 L 819.62 1407.80 C 819.91 1407.31 820.24 1406.85 820.62 1406.43 L 820.91 1406.11 C 821.46 1405.50 822.12 1405.01 822.85 1404.66 L 822.85 1404.66 C 823.52 1404.35 824.24 1404.16 824.98 1404.10 L 825.06 1404.09 C 825.84 1404.03 826.62 1404.13 827.36 1404.38 L 827.36 1404.38 C 828.19 1404.67 828.94 1405.13 829.55 1405.75 L 830.06 1406.26 Z" fill="url(#paint15_linear_7_594)" fill-rule="nonzero" node-id="276" stroke="none" target-height="293.92993" target-width="340.74" target-x="655.09" target-y="1404.03"></path><path d="M 837.97 1599.47 L 836.47 1602.72 L 834.46 1605.13 L 831.84 1606.72 L 828.59 1607.29 L 825.33 1606.72 L 822.71 1605.13 L 820.71 1602.72 L 819.21 1599.47 L 812.95 1513.49 L 813.64 1508.96 L 815.27 1505.24 L 817.83 1502.17 L 821.11 1499.80 L 824.68 1498.39 L 828.59 1497.86 L 833.12 1498.55 L 836.84 1500.24 L 839.90 1502.92 L 842.25 1506.39 L 843.69 1510.40 L 844.22 1515.05 L 837.97 1599.47 Z M 828.59 1622.92 L 833.18 1623.48 L 836.87 1624.92 L 839.90 1627.23 L 842.22 1630.27 L 843.66 1633.96 L 844.22 1638.55 L 843.66 1643.15 L 842.22 1646.84 L 839.90 1649.87 L 836.87 1652.18 L 833.18 1653.62 L 828.59 1654.19 L 823.99 1653.62 L 820.30 1652.18 L 817.27 1649.87 L 814.95 1646.84 L 813.52 1643.15 L 812.95 1638.55 L 813.52 1633.96 L 814.95 1630.27 L 817.27 1627.23 L 820.30 1624.92 L 823.99 1623.48 L 828.59 1622.92 Z" fill="#ffffff" fill-rule="nonzero" node-id="278" stroke="none" target-height="156.32996" target-width="31.269958" target-x="812.95" target-y="1497.86"></path><path d="M 1361.57 2326.11 L 1053.67 2310.61 L 1051.23 2309.98 L 1049.35 2308.54 L 1048.10 2306.51 L 1047.73 2304.04 L 1048.44 2301.41 L 1171.32 2070.33 L 1172.91 2068.39 L 1175.01 2067.30 L 1177.38 2067.05 L 1179.79 2067.74 L 1181.85 2069.52 L 1366.88 2316.11 L 1367.98 2318.36 L 1368.07 2320.74 L 1367.32 2322.99 L 1365.66 2324.86 L 1363.72 2325.83 L 1361.57 2326.11 Z" fill="url(#paint16_linear_7_594)" fill-opacity="0.2" fill-rule="evenodd" node-id="280" stroke="none" target-height="259.06006" target-width="320.33997" target-x="1047.73" target-y="2067.05"></path><path d="M 1177.91 2197.40 L 1163.22 2225.00 L 809.86 2037.13 L 824.55 2009.52 L 1177.91 2197.40 Z" fill="url(#paint17_linear_7_594)" fill-opacity="0.2" fill-rule="evenodd" node-id="282" stroke="none" target-height="215.47998" target-width="368.05005" target-x="809.86" target-y="2009.52"></path><path d="M 1198.24 2238.92 L 1195.89 2236.29 L 1194.55 2233.76 L 1194.14 2231.16 L 1194.86 2228.60 L 1196.58 2226.60 L 1198.96 2225.47 L 1201.80 2225.19 L 1205.30 2225.66 L 1283.56 2261.61 L 1287.37 2264.27 L 1290.03 2267.18 L 1291.72 2270.37 L 1292.60 2273.87 L 1292.47 2277.03 L 1291.50 2280.00 L 1289.25 2282.81 L 1286.37 2284.66 L 1282.75 2285.59 L 1276.87 2285.31 L 1270.43 2282.97 L 1198.24 2238.92 Z M 1181.07 2221.28 L 1178.88 2224.19 L 1176.26 2226.16 L 1173.01 2227.25 L 1169.53 2227.47 L 1165.72 2226.75 L 1161.37 2224.97 L 1157.50 2222.38 L 1154.78 2219.62 L 1153.00 2216.62 L 1152.09 2213.31 L 1152.25 2210.03 L 1153.46 2206.59 L 1155.62 2203.68 L 1158.28 2201.71 L 1161.50 2200.62 L 1164.97 2200.40 L 1168.82 2201.12 L 1173.13 2202.90 L 1177.01 2205.49 L 1179.76 2208.24 L 1181.51 2211.25 L 1182.42 2214.56 L 1182.29 2217.84 L 1181.07 2221.28 Z" fill="#ffffff" fill-opacity="0.2" fill-rule="nonzero" node-id="284" stroke="none" target-height="85.190186" target-width="140.51001" target-x="1152.09" target-y="2200.4"></path></svg>